<svg version="1.2" xmlns="http://www.w3.org/2000/svg" viewBox="0 0 41 39" width="41" height="39"><style>.a{fill:#fff}</style><path class="a" d="m10.2 0v5.2h-4.6q-0.2 0-0.3 0.1-0.2 0-0.3 0.2-0.2 0.1-0.2 0.2-0.1 0.2-0.1 0.4v3.4q0 0.1 0 0.2 0 0 0 0.1 0 0 0.1 0.1 0 0 0 0.1l2 3h-1.2q-0.2 0-0.3 0.1-0.2 0-0.3 0.2-0.2 0.1-0.2 0.2-0.1 0.2-0.1 0.4v11.3h-2.8q-0.2 0-0.3 0-0.2 0.1-0.3 0.2-0.2 0.1-0.2 0.3-0.1 0.2-0.1 0.3v11.3q0 0.2 0.1 0.3 0 0.2 0.2 0.3 0.1 0.1 0.3 0.2 0.1 0.1 0.3 0.1h37.9q0.2 0 0.4-0.1 0.2-0.1 0.3-0.2 0.1-0.1 0.2-0.3 0.1-0.1 0.1-0.3v-11.3q0-0.1-0.1-0.3-0.1-0.2-0.2-0.3-0.1-0.1-0.3-0.2-0.2 0-0.4 0h-22.2v-11.3q0-0.2 0-0.4-0.1-0.1-0.2-0.2-0.2-0.2-0.3-0.2-0.2-0.1-0.4-0.1h-1.1l1.9-3q0-0.1 0.1-0.1 0-0.1 0-0.1 0-0.1 0-0.1 0-0.1 0-0.2v-3.4q0-0.2 0-0.4-0.1-0.1-0.2-0.2-0.2-0.2-0.3-0.2-0.2-0.1-0.4-0.1h-4.6v-5.2zm-3.7 6.9h9.2v2.4l-2.3 3.7h-4.5l-2.4-3.7zm0 7.8h1.8 5.6 1.8v10.4h-9.2zm-3.7 12.2h2.8 11.1 22.2v9.5h-3.7v-6.9h-4.7v6.9h-27.7zm2.8 2.6v3.5h10.1v-3.5zm12.1 0v3.5h10.1v-3.5z"/></svg>