<svg version="1.2" xmlns="http://www.w3.org/2000/svg" viewBox="0 0 40 40" width="40" height="40"><style>.a{fill:#fff}</style><path class="a" d="m19.4 35c1.6 0 3 0 4.7 0 0.6 0 1.2-0.7 1.2-1.3 0-3.8 0-11.8 0-11.8 0 0 7.1 0 10.3 0 0.6 0 1.3-0.7 1.3-1.3 0-1 0-2 0-3.1 0-0.6-0.7-1.3-1.3-1.3-3.4 0-10.3 0-10.3 0v-5.6c0 0 7.3 0 10.9 0 0.6 0 1.3-0.6 1.3-1.2 0-1 0-2.1 0-3.2 0-0.5-0.7-1.2-1.3-1.2-5 0-10.6 0-16.8 0-0.6 0-1.3 0.7-1.3 1.2 0 8.8 0 19.3 0 27.5 0 0.6 0.7 1.3 1.3 1.3zm20.6-35v40h-25v-5h-5v5h-5v-5h-5v-5h5v-5h-5v-5h5v-5h-5v-5h5v-5h-5v-5h5v5h5v-5zm-30 5v5h5v-5zm0 10v5h5v-5zm0 10v5h5v-5zm0-15h-5v5h5zm0 10h-5v5h5zm0 10h-5v5h5z"/></svg>