<svg version="1.2" xmlns="http://www.w3.org/2000/svg" viewBox="0 0 41 40" width="41" height="40"><style>.a{fill:#fff}</style><path fill-rule="evenodd" class="a" d="m40.3 0.5c0.4 0.4 0.7 1.1 0.7 1.8v29.8c0 0.9-0.4 1.7-1.1 2l-11.6 5.7c-0.4 0.2-0.8 0.2-1.2 0l-12.7-5.4-11.1 5.4c-0.6 0.3-1.1 0.2-1.6-0.2-0.4-0.4-0.7-1.1-0.7-1.8v-29.8c0-0.9 0.4-1.7 1.1-2l11.6-5.7c0.4-0.2 0.8-0.2 1.2 0l12.7 5.4 11.1-5.4c0.6-0.2 1.1-0.2 1.6 0.2zm-36 8.9v25.3l8.4-4v-25.3zm21.6 25.4v-25.3l-10-4.3v25.3zm3.4-0.1l8.3-4.1v-25.2l-8.3 4z"/></svg>