<svg version="1.2" xmlns="http://www.w3.org/2000/svg" viewBox="0 0 40 40" width="40" height="40"><style></style><path  d="m6.4 39.9c-0.2-0.1-0.4-0.3-1.3-2.2l-1-1.9-1.8-0.9c-2.9-1.4-2.9-1.4-1.1-3.1 1.3-1.2 1.1-1.2 2.5-0.9l1.1 0.3 1-1c0.5-0.5 0.9-1 0.9-1-0.1 0-1.4-0.8-3.1-1.6-4.1-2.1-4-2-2.3-3.6 1-1 1.1-1.1 1.4-1.1 0.1 0 2.3 0.2 4.9 0.4l4.6 0.5 0.9-0.9c1.8-1.7 2.8-2.2 4.7-2.2 2.7 0 2.1 3.5-1.1 6.6l-0.5 0.5 0.5 4.6c0.2 2.6 0.4 4.8 0.4 4.9 0 0.3-0.1 0.4-1 1.4-1.7 1.7-1.5 1.8-3.7-2.3-0.8-1.6-1.6-3-1.6-3.1 0 0-0.5 0.4-1 1l-1 0.9 0.3 1.1c0.3 1.4 0.3 1.3-0.9 2.5-1.1 1.2-1.4 1.3-1.8 1.1zm1-3.8c-0.1-0.5-0.2-1.1-0.2-1.2 0-0.3 0.2-0.5 5-5.3 5.6-5.6 5.4-5.4 5.6-6.7 0.1-0.8 0.1-0.8-0.6-0.6-1.4 0.2-1.1 0-6.8 5.5-4.7 4.8-5 5-5.2 5-0.2 0-0.8-0.1-1.3-0.2l-1-0.3-0.4 0.4-0.4 0.4 1.6 0.8 1.6 0.8 0.8 1.6 0.8 1.6 0.4-0.4 0.4-0.4zm7.8 1.2l0.3-0.3-0.4-3.8c-0.2-2.1-0.4-3.8-0.4-3.9 0 0-0.6 0.6-1.4 1.4l-1.4 1.4 0.6 1.1c1.7 3.4 2.3 4.5 2.3 4.5 0 0 0.2-0.2 0.4-0.4zm-5.9-10.7c0.8-0.7 1.4-1.4 1.4-1.4-0.1 0-1.8-0.1-3.9-0.4l-3.8-0.3-0.4 0.3c-0.2 0.2-0.3 0.4-0.3 0.4 0.1 0 1.3 0.7 2.8 1.4 1.4 0.8 2.7 1.4 2.7 1.4 0.1 0 0.7-0.6 1.5-1.4zm9.4 5.5c-0.5-0.3-0.5-1.1 0.1-1.4 0.6-0.3 1.4 0.1 1.4 0.7 0 0.6-0.8 1-1.5 0.7zm3.5 0c-0.5-0.3-0.5-1.1 0.1-1.4 0.7-0.3 1.5 0.1 1.5 0.7 0 0.6-0.9 1-1.6 0.7zm3.6 0c-0.6-0.3-0.5-1.1 0-1.4 0.7-0.3 1.5 0.1 1.5 0.7 0 0.6-0.9 1-1.5 0.7zm3.5 0c-0.5-0.3-0.5-1.1 0-1.4 0.7-0.3 1.5 0.1 1.5 0.7 0 0.6-0.9 1-1.5 0.7zm3.5 0c-0.5-0.3-0.5-1.1 0-1.4 0.7-0.3 1.5 0.1 1.5 0.7 0 0.6-0.9 1-1.5 0.7zm3.5-0.5c-0.4-0.2-0.6-0.7-0.3-1.1 0.6-0.7 1.7-0.6 1.7 0.3 0 0.6-0.9 1.1-1.4 0.8zm2.3-2.5c-0.4-0.2-0.5-0.7-0.3-1.3 0.4-0.9 1.7-0.5 1.5 0.4-0.1 0.8-0.6 1.2-1.2 0.9zm0-3.4c-0.8-0.3-0.9-1.6-0.1-1.8 0.5-0.1 1.1 0.5 1.1 1.1 0 0.4-0.6 0.9-1 0.7zm-2.7-2.4c-0.9-0.4-0.8-1.6 0.1-1.6 0.9 0 1.5 0.9 0.9 1.4-0.3 0.3-0.6 0.3-1 0.2zm-14.4-0.4c-0.5-0.3-0.5-1.1 0.1-1.3 0.6-0.3 1.5 0.1 1.5 0.7 0 0.6-0.9 1-1.6 0.6zm3.6 0c-0.6-0.3-0.5-1.1 0-1.3 0.7-0.3 1.5 0.1 1.5 0.7 0 0.6-0.9 1-1.5 0.6zm3.5 0c-0.5-0.3-0.5-1.1 0-1.3 0.7-0.3 1.5 0.1 1.5 0.7 0 0.6-0.9 1-1.5 0.6zm3.5 0c-0.5-0.3-0.5-1.1 0-1.3 0.7-0.3 1.6 0.1 1.6 0.7 0 0.6-1 1-1.6 0.6zm-19.9-2c-0.7-0.7 0-1.7 0.9-1.2 0.1 0.1 0.3 0.3 0.3 0.4 0.4 0.9-0.6 1.5-1.2 0.8zm19.2-0.7c-0.6-0.2-6-7-6.7-8.4-3.5-7 3.9-14.4 10.8-10.9 5 2.5 6 9 1.9 13.2-1.1 1.2-1.7-0.2-0.6-1.6 2.3-3.1 2.2-6.5-0.3-9-4.4-4.3-11.7-0.8-11.1 5.3 0.2 1.7 0.4 2.2 3.8 6.5l2.7 3.4 0.3-0.3q0.7-0.9 1.3-0.5c1 0.8-0.9 2.8-2.1 2.3zm-20.7-1.8c-0.4-0.2-0.6-0.9-0.4-1.4 0.2-0.6 1.1-0.6 1.4 0 0.3 1-0.2 1.8-1 1.4zm23.8-1.7c-0.5-0.5-0.2-1.3 0.5-1.3 0.5 0 0.7 0.3 0.7 0.7 0 0.5-0.2 0.8-0.7 0.8q-0.3 0-0.5-0.2zm-23.5-1.9c-0.5-0.5 0-1.6 0.7-1.6 0.7 0 1 0.7 0.6 1.4-0.4 0.5-0.9 0.6-1.3 0.2zm2.7-2.3c-0.7-0.2-0.7-1.1 0-1.4 0.9-0.4 1.6 0.1 1.3 0.9-0.2 0.4-0.9 0.7-1.3 0.5zm3.2-0.7c-0.8-0.8 0.3-1.7 1.3-1.2 0.7 0.4 0.3 1.4-0.6 1.4-0.4 0-0.5 0-0.7-0.2zm3.5 0c-0.7-0.8 0.3-1.7 1.3-1.2 0.8 0.4 0.3 1.4-0.6 1.4-0.4 0-0.5 0-0.7-0.2zm10.6 0.1c-3-0.7-4-4.3-2-6.5 2.5-2.5 6.8-0.8 6.8 2.7 0 2.5-2.4 4.4-4.8 3.8zm1.9-1.7c1.4-0.6 1.8-2.6 0.6-3.7-1.3-1.4-3.8-0.6-4 1.4-0.2 1.8 1.7 3.1 3.4 2.3z"/></svg>