<svg version="1.2" xmlns="http://www.w3.org/2000/svg" viewBox="0 0 40 40" width="40" height="40"><style>.a{fill:#fff}</style><path fill-rule="evenodd" class="a" d="m39.7 13c0.3 0.7 0.1 1.5-0.5 1.9l-3.6 3.1q0.2 1 0.2 2 0 1-0.2 2l3.6 3.1c0.6 0.5 0.8 1.2 0.5 1.9q-0.5 1.4-1.3 2.7l-0.3 0.6q-0.9 1.3-1.9 2.4c-0.5 0.6-1.3 0.8-2 0.6l-4.6-1.4q-1.6 1.2-3.6 2l-1 4.4c-0.2 0.7-0.8 1.3-1.5 1.4q-1.7 0.3-3.5 0.3-1.8 0-3.5-0.3c-0.8-0.1-1.3-0.7-1.5-1.4l-1-4.4q-2-0.8-3.6-2l-4.6 1.4c-0.7 0.2-1.5 0-2-0.6q-1-1.1-1.9-2.4l-0.3-0.6q-0.8-1.3-1.3-2.7c-0.3-0.7-0.1-1.4 0.5-1.9l3.6-3.1q-0.2-1-0.2-2 0-1 0.2-2l-3.6-3.1c-0.6-0.4-0.8-1.2-0.5-1.9q0.5-1.4 1.3-2.7l0.3-0.6q0.9-1.3 1.9-2.4c0.5-0.6 1.3-0.8 2-0.6l4.6 1.4q1.6-1.2 3.6-2l1-4.4c0.2-0.7 0.8-1.3 1.5-1.4q1.7-0.3 3.5-0.3 1.8 0 3.5 0.3c0.8 0.1 1.3 0.7 1.5 1.4l1 4.4q2 0.8 3.6 2l4.6-1.4c0.7-0.2 1.6 0 2 0.6q1 1.1 1.9 2.4l0.3 0.6q0.8 1.3 1.3 2.7zm-19.7 13.3c1.7 0 3.4-0.7 4.7-1.9 1.2-1.1 1.9-2.7 1.9-4.4 0-1.7-0.7-3.2-1.9-4.4-1.3-1.2-3-1.8-4.7-1.8-1.7 0-3.4 0.6-4.6 1.8-1.3 1.2-2 2.7-2 4.4 0 1.7 0.7 3.3 2 4.4 1.2 1.2 2.9 1.9 4.6 1.9z"/></svg>