<svg version="1.2" xmlns="http://www.w3.org/2000/svg" viewBox="0 0 40 40" width="40" height="40"><defs><linearGradient id="P" gradientUnits="userSpaceOnUse"/><linearGradient id="g1" x2="1" href="#P" gradientTransform="matrix(40,0,0,40,0,20)"><stop stop-color="#0ff"/><stop offset="1" stop-color="#fff"/></linearGradient></defs><style>.a{fill:url(#g1)}</style><path class="a" d="m3.6 10.4l-0.1 0.1q-0.1 0.2-0.2 0.4v0.2h0.1 0.1l0.1 0.3 0.1 0.2h-0.6-0.2c-1.2 2.5-1.9 5.4-1.9 8.4q0 0.6 0 1.2l0.1 0.1h0.3l0.4 0.1h0.1 0.2v0.1l0.2 0.4 0.3 0.5v0.1l-0.2 0.2-0.1 0.2 0.2-0.2 0.1-0.1h0.1 0.1l0.2 0.1-0.1 0.2v0.2l0.4-0.2 0.3 0.1 0.2 0.1v0.1 0.1 0.1h0.1 0.1 0.4 0.5l0.5 0.4 0.6 0.3v0.3 0.3l-0.3 0.4-0.4 0.5-0.1 1-0.2 1v0.1l-0.7 0.4-0.8 0.3-0.2 0.8c3.3 5.9 9.5 9.8 16.7 9.8 6.8 0 12.8-3.5 16.1-8.9v-0.8-1l0.9-0.4 0.4-0.2q1-2.2 1.4-4.7l-0.2 0.2-0.2 0.3h-0.5-0.6l-0.1-0.3-0.2-0.2v-0.3-0.3l0.5-0.3 0.5-0.2 0.3-0.3 0.2-0.3 0.2-0.1h0.1 0.1v1.1q0.1-0.9 0.1-1.8v0.1l-0.2 0.1h-0.1-0.1v-0.1l0.3-0.2 0.1-0.2q0-0.1 0-0.2 0-1.3-0.1-2.6h-0.1l-0.1-0.2 0.1-0.1q0-0.4-0.1-0.8l-0.2 0.4-0.2 0.6h-0.1l-0.8 0.3-0.8 0.3v-0.1-0.2l-0.3 0.2-0.3 0.1v0.2 0.2 0.1l0.4 0.5 0.4 0.4v0.3 0.3 0.1 0.2l-0.4 0.2-0.4 0.3v-0.1-0.4h-0.1v0.1h-0.1-0.1l-0.4-0.4-0.4-0.4v0.5l-0.1 0.6 0.2 0.2 0.2 0.3 0.4 0.6 0.4 0.6v0.1 0.1h-0.1l-0.3-0.3-0.4-0.3-0.1-0.4-0.2-0.4-0.2-0.1-0.2-0.2v-0.1-0.4-0.5l-0.1-0.7-0.2-0.1-0.1-0.2h-0.1v0.1l-0.1 0.1h-0.1l-0.1-0.1h-0.1v-0.3l-0.1-0.3v-0.1h-0.1l-1-0.8-0.8 0.8-0.9 0.8v0.1 0.6l-0.1 0.6-0.3 0.2-0.4 0.2-0.5-1.5-0.6-1.6h-0.1v0.1 0.1h-0.1v0.1h-0.1l-0.2-0.1-0.1-0.1-0.1-0.1 0.1-0.1 0.1-0.1h-0.1l-0.3-0.1-0.2-0.2-0.2-0.2h-1.5l-1.4-0.4-0.3-0.4-0.4-0.4h-0.1-0.1-0.1v-0.1h-0.1l-0.1 0.1 0.3 0.5 0.4 0.6 0.1-0.2 0.1 0.1 0.1 0.1v0.1l-0.1 0.1h0.1v0.1h0.3 0.2l0.3-0.3h0.1l0.4 0.3 0.4 0.4-0.6 0.7-0.5 0.7-1.1 0.4-1.1 0.5-0.2-0.5-0.1-0.6-0.8-1.4-0.9-1.4-0.1 0.1v0.2l-0.3-0.3h-0.1v-0.1 0.1l0.5 0.9 0.6 1 0.7 1.2 0.7 1.1v0.1 0.1h0.1l0.7-0.2 0.8-0.1 0.1 0.3v0.2 0.1l-2.4 2.7-0.3 0.4 0.1 0.7 0.1 0.8v0.5l0.1 0.6v0.1l-0.6 0.5-0.6 0.5v0.1 0.2 0.3 0.4l-0.2 0.2-0.3 0.2v0.3 0.2l-0.7 0.8-0.7 0.7c0 0-0.8 0-0.8 0h-0.9v-0.1l-0.4-1.2-0.5-1.3-0.5-1.3v-0.2-0.2l0.2-0.3 0.2-0.4v-1.5l-0.4-0.6-0.4-0.6v-0.4-0.4-0.3-0.3h-0.8v-0.1h-0.1v-0.1-0.2h-0.1-0.3l-0.2-0.1-0.8 0.3-0.9 0.2-0.6 0.2h-0.1v-0.1l-0.4-0.4-0.3-0.3-0.5-0.5-0.5-0.6-0.1-0.1 0.1-1v-1-0.3-0.2l1.1-1.4 1-1.4h0.6l0.6-0.1 0.6-0.2 0.5-0.2h1.5v0.4 0.4l0.4 0.1 0.4 0.1 0.1 0.2 0.2 0.1 0.3 0.1 0.4 0.1 0.1-0.3 0.2-0.2 1.3 0.2 1.3 0.2h0.1v-0.1-0.2l0.1-0.2 0.1-0.4 0.1-0.4h-0.1-0.7l-0.8-0.1h-0.1l-0.2-0.3-0.2-0.4v-0.1l0.2 0.1h0.3l0.2-0.3h0.2 1.7l0.2-0.1h0.2v-0.3l-0.5-0.2-0.4-0.1v-0.2-0.2l0.1-0.1h0.1l-0.1-0.2-0.4 0.1-0.3 0.1h-0.1l0.2 0.1 0.1 0.2v0.1h-0.1-0.1-0.1l-0.1-0.1-0.1-0.1v-0.1h0.1-0.4-0.3l-0.2 0.4-0.1 0.4 0.1 0.2v0.2h-0.7l-0.2 0.1-0.2 0.1 0.1 0.2 0.1 0.2v0.1l-0.1 0.1-0.1 0.2v-0.1l-0.2-0.1-0.1-0.2 0.1-0.1h0.1l-0.2-0.1h-0.1l-0.2-0.1-0.1-0.2v-0.2l-0.1-0.2v-0.1h-0.2l-0.2-0.1-0.2-0.3-0.3-0.2h-0.1-0.2-0.1l1.2 1.1-0.2 0.1v0.2l-0.1 0.1-0.2 0.1v-0.2-0.2l-0.6-0.6-0.5-0.5h-0.2-0.2v0.2 0.1 0.1h-0.5-0.5l-0.5 0.7-0.5 0.7h-0.1v0.1l-0.5-0.1h-0.6l-0.1-0.2-0.1-0.2 0.1-1.1v-0.1h0.1 1.4l-0.1-0.7-0.2-0.2-0.2-0.1v-0.1h0.4v-0.1h0.1l1-0.6 0.9-0.6v-0.1l-0.1-0.2 0.1-0.2 0.1-0.2h0.1 0.2l-0.1 0.3v0.2 0.1 0.1h0.9l0.3-0.1h0.3 0.1 0.2 0.2v-0.3-0.4l0.2 0.1 0.2 0.1v-0.1l0.1-0.1-0.1-0.1-0.1-0.1v-0.1h0.4 0.2l0.1-0.1 0.1-0.1h-0.7l-0.3-0.1-0.2-0.2 0.2-0.5 0.2-0.4h-0.3l-0.8 0.9 0.3 0.5-0.4 0.4-0.4 0.3-0.3-0.2-0.2-0.3v-0.1h-0.1l-0.3 0.1h-0.4l-0.2-0.3-0.1-0.3 1.3-0.9 1.3-0.9h0.8l0.7-0.1 0.9 0.3 1 0.3-0.3 0.1-0.2 0.1h-0.5-0.4l0.1 0.3 0.2 0.3 1.2-0.5 1.2-0.5h1.4l1.3-0.1-0.2-0.4-0.1-0.3h0.7l0.2 0.7 0.1 0.6 0.3-0.2 0.2-0.2v-0.1l-0.3-0.3-0.2-0.3 1.1-0.5 1.2-0.5h1.2 1.3v0.1h0.1v0.3l0.1 0.2h2.6c-3.4-3.2-7.9-5.1-13-5.1-4.2 0-8.1 1.3-11.3 3.7l0.8-0.1 0.9-0.1 1 0.1 1.1 0.1-0.2 0.1-0.1 0.1-0.7 0.2-1.1 1.8-0.4 0.1-0.3 0.1h-0.4l-0.4 0.1-0.3 0.1-0.2 0.2-0.5 0.1-0.6 0.2-0.4 0.5-0.4 0.4h-0.3-0.3l-0.2-0.2-0.2-0.3-0.1-0.2v-0.1-0.2q-1 1.2-1.8 2.5zm34.2 3l-0.1-0.3-0.3 0.2-0.2 0.2 0.4 0.6 0.1-0.1h0.1 0.2q0-0.2-0.1-0.4zm0.3 0.9l-0.2 0.2v0.1l0.4 0.7 0.3 0.4q-0.2-0.7-0.5-1.5zm-17.6 8.9h0.2l0.1-0.2 0.1-0.2v-0.1h-0.3v0.1l-0.2 0.2-0.1 0.2c0 0 0.2 0 0.2 0zm4-8.9v-0.4-0.4l-0.5-0.4-0.5-0.4v-0.2l0.1-0.1v-0.1l0.2-0.1 0.2-0.1-0.2-0.1-0.1-0.2-0.4 0.2-0.3 0.1v0.7l0.2 0.3 0.2 0.4 0.3 0.6 0.1 0.1v0.1zm-1.2 14.5h-0.1-0.3l-0.1-0.2-0.1-0.3 0.1-0.3 0.1-0.2v-0.4l0.1-0.4 0.5-0.6 0.6-0.5h0.1 0.2l-0.9 2.9zm15.1-3.8l-1.1-0.2-1.1-0.2 0.2-0.1 0.1-0.1v-0.1l0.3 0.1 0.3 0.1h0.2l0.3-0.1 0.4 0.2 0.3 0.2 0.1 0.1q0 0.1 0 0.1zm-2.4-0.7l-1-1.3-0.9-1.3-0.1-0.1 0.3 0.1 0.3 0.1 1.7 1.8v0.4l-0.1 0.2-0.2 0.1zm0.8-5.6l-0.1-0.1v-0.1-0.2h0.1l0.2-0.1v0.2l-0.1 0.1-0.1 0.2zm-16.4-3.9l-0.1-0.1h-0.2l0.3-0.1 0.2-0.1-0.1 0.1v0.2zm-3.8-0.1h-0.1-0.1v-0.1h-0.1-0.1v-0.1l0.1-0.1h0.3v0.3zm0-0.5h-0.1-0.2l-0.1-0.1h-0.1v-0.2h0.3 0.2v0.2l0.1 0.1zm-1.4-0.5v-0.5h0.1l0.1 0.1h0.1v0.4zm-1.3 0l0.2-0.1 0.1-0.1v0.2zm1.5-0.6h-0.1v-0.2-0.1h0.2v0.2l-0.1 0.1zm-2.7-2l0.2-0.2 0.2-0.2-0.1-0.1-0.1-0.1 0.3-0.2-0.1-0.1v-0.2h-0.1-0.2v-0.6h0.4v0.1l0.2 0.4 0.2 0.5 0.4 0.1v0.1 0.1 0.1h-0.1-0.1v0.1 0.1h-0.2-0.2l-0.3 0.1h-0.3zm-0.9-0.2v-0.6l0.2-0.2 0.3-0.1h0.2 0.2v0.2l-0.2 0.1v0.4 0.1l-0.2-0.1h-0.2v0.2zm3.7-0.9l0.1-0.1v-0.1h0.1 0.1l0.1 0.1v0.1h-0.1zm-9.6-2.9q0 0-0.1 0.1zm5 1.1l-1-0.1v-0.3h0.3 0.1v-0.1h0.3 0.2l0.2-0.1h0.2l0.4 0.3-0.1 0.1-0.3 0.1-0.3 0.2zm8.9 31.8c-11.1 0-20-9-20-20 0-11.1 8.9-20 20-20 11.1 0 20 8.9 20 20 0 11-8.9 20-20 20z"/></svg>