<svg version="1.2" xmlns="http://www.w3.org/2000/svg" viewBox="0 0 1080 1080" width="1080" height="1080"><style>.a{fill:#fff}</style><path class="a" d="m98.3 280.8l-3.6 1.9q-3.5 6.1-6.8 12.3v4.2l1.5 0.4 1.5 0.4 1.6 0.5 1.6 0.4 3.5 5.6 3.6 5.5v0.6c0 0-17.3 0-17.3 0h-5.1c-33.8 68.5-52.8 145.7-52.8 227.4q0 16.9 1.1 33.4l2 2 9.5 0.8 9.5 0.9 3.9 0.3 3.9 0.2 0.5 0.8 0.5 0.8 6 13.1 6 13.1v0.4 0.4l-3.9 5.7-3.8 5.6 0.1 0.2 0.1 0.1 5.1-4 5-3.9 0.5-0.2 0.4-0.2 4.5 1.9 4.5 1.9v0.4l-2 5.2-1.9 5.2 0.1 0.2 0.2 0.1 12.4-7.3 6.8 3 6.8 2.9-0.2 3.3-0.3 3.3-0.1 0.6-0.2 0.5 2.4 0.3 2.5 0.2 12 0.7 12.1 0.8 14.7 9.6 14.8 9.6 0.1 7.4 0.1 7.3-9.1 11.9-9 11.8-3.7 27.6-3.7 27.6-0.3 1.4-0.2 1.5-20.9 9.3-21 9.3-3.5 22.4c87.6 157.9 256 264.6 449.7 264.6 183.7 0 344.6-95.9 435.5-240.5l0.1-23.4 0.2-26.2 23.1-10.8 11.6-5.4c17.5-39.9 30.2-82.3 37.2-126.7l-4.5 5.7-6.9 8.8c0 0-14.2 0-14.2 0h-14.3l-4.4-7.8-4.5-7.9-0.3-7.7-0.3-7.7 0.3-0.3 0.3-0.2 14-6.5 14-6.4 6.4-8.4 6.3-8.5 4.7-0.4 4.6-0.4 1.3-0.1v30.1q3-24.4 3.6-49.5l-1.4 1.2-5 4.2c0 0-0.7-0.1-0.7-0.1h-0.7l-2.2-0.5-2.3-0.6v-0.5l7.6-6.9 4.9-4.4q0-3.1 0-6.2c0-23.7-1.6-47.1-4.7-69.9l-1.1-1-3.8-3.7 3.5-5q-1.5-9.8-3.4-19.5l-4.2 9.4-7.4 16.5h-0.1l-0.1 0.1-22 7.9-21.9 7.8-0.6 0.2-0.6 0.1-0.2-3.3-0.2-3.3-0.3-0.3-7.5 4.2-7.5 4.3-0.4 4.5-0.4 4.5-0.2 2.1-0.2 2 11.6 12.3 11.6 12.3 0.2 7.4 0.3 7.4 0.2 3.6 0.2 3.6-10.9 7.2-10.9 7.1-0.4 0.2-0.5 0.2-0.2-2-0.2-1.9v-8.5l-1.2 0.2-1.2 0.2-2.6 0.4-2.7 0.4-10.2-10.2-10.2-10.1-0.1 0.1-0.2 0.2-1.3 13.6-1.4 13.6 4.7 6.9 4.7 6.9 11 16.3 11 16.3v0.6 0.7l-0.7 2.6-0.6 2.6-0.2 0.2-0.2 0.2-10.2-8.7-10.2-8.7-0.2-0.4-0.2-0.4-3-9.8-3-9.7-5.6-4.8-5.7-4.7-0.7-0.8-0.7-0.8 0.8-12.3 0.8-12.2-4.8-17.9-3.9-4.4-3.9-4.4-0.3-0.1-0.3-0.1-2.1 2.6-2 2.5h-0.8l-2.7-0.8-2.7-0.7-0.4-0.4-0.5-0.4-1.6-8.8-1.6-8.7-1.1-0.9-1-0.8-26.6-22.4h-0.2-0.2l-23.3 22.5-23.3 22.5v0.8 0.8l-1.4 15.9-1.4 16-0.2 0.2-0.3 0.3-9 5.6-9.1 5.6-0.3-0.2-0.2-0.2-14.6-41.8-14.5-41.7-1.6-0.1-1.7-0.1-0.5 2.6-0.6 2.6-0.2 1.2-0.3 1.2h-0.3l-4.6-0.6-4.5-0.6-0.1-0.1-2.6-3.4-2.6-3.3 2.6-2.7 2.6-2.6-0.8-0.4-0.9-0.3-9.2-2.8-4.9-5.5-4.9-5.5-41.1 0.1-37-11-9.8-10.2-9.7-10.2-0.8-0.2-0.7-0.1-3.5-0.4-3.6-0.3-0.9-0.8-2.6 0.3-2.5 0.3 9.4 15.3 9.3 15.3 0.6 0.6 0.6 0.6h0.5l2.3-7.5h0.5l2.8 4 2.8 4-1.4 1.5-1.5 1.5v0.4l1.7 1.1 1.7 1.1 5.9 1.1 5.9 1.1 0.3-0.3 0.2-0.2 8.8-9.9h0.7l11.1 9.9 11.2 9.9-0.3 0.5-0.2 0.4-14.5 18-14.6 18-28.8 13-28.9 13.1-0.7 0.1h-0.7l-0.3-0.9-0.2-0.9-4.2-13.6-4.2-13.5-22-38.3-22-38.2-0.4-0.5-0.4-0.5-1.6 3.7-1.6 3.7-0.5 0.7-7.8-6.5-1.8-1.4-1.7-1.4 0.4 0.9 0.5 0.9 14.7 25.2 14.6 25.2 18.7 32 18.6 32.1 0.9 1.5 0.9 1.5h0.6 0.6l20.7-3.1 20.8-3.1 0.5 0.2 0.5 0.2 1.2 6.2 1.2 6.1-0.4 0.8-0.5 0.7-63.8 74.3-8.2 9.5 1.9 20.6 1.8 20.7 1.6 15.1 1.6 15.1v2.2l-16 13.1-16.1 13.1 0.2 4 0.2 4 0.4 10.4 0.4 10.4-0.3 0.2-0.3 0.3-6.4 4.4-6.4 4.4-0.2 0.4-0.3 0.4-0.9 6.9-1 6.9-17.6 20.4-17.6 20.3c0 0-23 0.1-23 0.1h-22.9l-0.4-1-0.3-0.9-12.7-34.7-12.2-34.4-12.2-34.4-0.5-5.9-0.5-5.9 5.4-8.8 5.3-8.7v-42.5l-11.6-15.5-11.5-15.5 0.2-11.6 0.2-11.5 0.3-7.5 0.2-7.5h-22l-0.4-1.3-0.3-1.4-0.8-3.7-0.8-3.6-1-0.2-0.9-0.2-7.4-1.1-7.4-1.1-21.9 6.3-22 6.4-18.3 5.3-1-1-0.9-1-9.3-10.1-9.4-10-13.1-14.2-13.1-14.2-2.8-3.2 0.9-27.6 1-27.6 0.3-6.3 0.2-6.3 28.8-37.4 28.7-37.5 0.1-0.1 16.2-1.7 16.2-1.7 14.4-5.5 14.4-5.4 39.4 1.1 0.2 0.2 0.2 0.3-0.4 10.1-0.4 10.2 0.1 0.1 0.1 0.1 10.8 2.6 10.8 2.6 0.4 0.2 0.4 0.3 3.8 4.4 3.7 4.5 9.4 1.9 9.3 1.9 0.3-0.2 0.2-0.1 4.2-6.3 4.3-6.3h1.1l35.2 4.7 35.2 4.8 0.2-0.2 0.2-0.3 1.8-6.4 1.8-6.4 2.1-10.2 2.2-10.2-0.2-0.2-0.2-0.2-20.4-1.2-20.4-1.2h-1.9-1.9l-4.9-9.7-4.8-9.8v-1.1l5.9 0.1 5.9 0.1 5.2-6.2 7.3-0.4 45.7-1.4 4.6-0.3 4.6-0.2v-10.3l-11.4-4-11.4-4-0.1-0.1-0.2-0.1-0.5-5-0.6-5 0.3-0.2 0.3-0.3 2.6-0.7 2.7-0.8 0.1-0.1 0.2-0.2-2.2-5.3-0.1-0.1-0.2-0.1-10.1 2.2-10.2 2.1-0.2 0.2-0.1 0.1 3.8 4.9 3.8 4.9v0.6l-3 0.3-3 0.2h-3.1l-3-1.7-3-1.7v-0.4-0.3l2-2.1 2.1-2.1-10.1 0.1-10.1 0.1-3.9 11.8-3.9 11.7 2.2 4.8 2.2 4.7v0.3h-20.2l-5.3 2.7-5.4 2.7v0.4l2.5 5.6 2.6 5.7v0.8l-2.4 3.8-2.5 3.9-0.3-0.1-0.2-0.1-3.8-4.8-3.9-4.7v-0.7l2.5-1 2.5-1.1-0.2-0.2-0.3-0.2-3.6-1-3.6-0.9-0.6-0.2-0.6-0.2-3-3.5-3.1-3.6-1.5-6.4-1.5-6.4-0.1-0.6-0.2-0.6-5.1-1.1-5.1-1.2-1.5-0.9-5.7-6.8-5.8-6.7-4.5 0.2-4.5 0.3-2.1 0.2-2.1 0.2 34.2 29.6 0.1 0.7-6.3 1.2v0.1l-0.1 0.1-0.9 4.3-0.8 4.3-5.3 3.2-0.2-0.2-0.2-0.2-0.7-5.9-0.7-5.8-14.5-14.5-14.4-14.5-4.7 0.1-4.7 0.1-0.5 5-0.2 2.8-0.3 2.8h-13-13l-14.4 18.5-14.3 18.5-1 1.1-0.9 1.1-14.4-1.1-14.4-1.1-0.1-0.1-2.9-5.2-2.9-5.3 0.8-30.7 2.2-0.2 2.1-0.2h36.6v-1.1l-1.5-19.6-0.3-0.3-5.7-3.1-5.6-3.1-0.1-2.4-0.1-2.4h10.2l1.6-1 1.7-0.9 26.5-15.9 26.4-15.8 0.1-0.1 0.1-0.1-1.6-3.9-1.6-3.8v-0.9l2.3-5.2 2.2-5.2 3.7-0.1 3.6-0.1v0.3 0.3l-1.2 6.7-1.2 6.8 0.3 1.1 0.3 1.2 0.4 1.5 0.4 1.6h22.5l8.4-2 8.3-2.1 1.2 1.2 1.2 1.1 5.7-0.1 5.8-0.1 0.1-10.2v-10.1h0.4l5.5 2.5 5.4 2.5 0.1-0.1 0.1-0.1 0.6-2.2 0.5-2.3-2.9-2-2.8-2.1v-0.5-0.6l0.5-1.5 0.6-1.5 11.3-0.4 5.4-0.1 2.7-2.5 2.6-2.5h-19.2l-6.8-3.4-6.8-3.4 0.4-1.2 0.5-1.1 5-11.2 4.9-11.2 0.4-0.9h-7.8l-23 25.2-0.2 0.6 10 12.5v0.5l-11 9.7-11 9.7h-0.4l-0.4 0.1-6.7-7.7-6.6-7.7-0.8-0.9-0.7-1-9.9 1.7-9.9 1.6-0.8 0.2-0.7 0.2-3.7-8.6-3.6-8.5 0.6-0.5 0.7-0.5 34.7-24 34.8-24.1 20.7-1.1 20.6-1.1 24.6 7.8 24.6 7.8v0.4l-6.4 3.2-6.4 3.1-12.1-0.5-12-0.5-0.3 0.1-0.2 0.2 4.1 7.8 4.1 7.8 0.2 0.1 0.1 0.2 33.3-13.7 33.2-13.6 35.5-1 35.4-1 0.1-0.1 0.1-0.1-4.3-9.9-4.3-9.8 1.2-0.1 1.1-0.1 16.5 1.4 0.4 0.7 5.1 16.6 5 16.6 5.5-5.6 5.5-5.6v-0.5l-6.5-8.1-6.5-8v-0.2-0.3l30.8-13.8 30.8-13.7 34.8 0.1 34.8 0.1 0.4 1.4 0.5 1.4 1.9 6.8 1.8 6.7h71.3c-92-86.4-215.8-139.3-352.2-139.3-114.1 0-219.5 37.1-304.7 99.8l21.6-2.5 24.2-2.9 27.6 2.8 27.6 2.8 0.2 0.2 0.2 0.2-3.4 3.4-3.3 3.5-19.5 4-0.1 0.2-0.1 0.3-30.8 48.9-8.2 2.4-8.3 2.5-11.9 0.8-11.8 0.7-5.8 4.5-5.7 4.4-15 4.4-14.9 4.4-0.8 0.3-0.7 0.3-11 11.5-10.9 11.6c0 0-7.6 0-7.6 0h-7.7l-5.9-6.2-5.9-6.1-0.3-4.9-0.2-5v-3.7c-18 21.2-34.2 44-48.6 68zm922.7 80l-4.1-7.7-0.1-0.1-0.1-0.1-5.8 5.1-5.9 5.2v0.4l9.2 15.2 2.6-1.6 2.6-1.6h7.8q-1.4-4.2-2.9-8.4zm7.2 22.5l-6.4 7v0.8l12.8 21.1 5.8 9.7q-4.7-20.3-11-39.8zm-476.2 238.4h5.1l3.1-5.4 3.1-5.4 0.1-0.3 0.1-0.4h-9.7l-0.7 0.9-3.1 5.3-3.1 5.4c0 0 5.1-0.1 5.1-0.1zm107.2-239.7v-0.1l0.1-0.1 0.5-10.6 0.4-10.6-0.2-0.3-0.3-0.2-12.8-10.7-12.9-10.6v-4.6l0.2-2.6 0.3-2.7 6.2-3 6.2-3.1-0.2-0.3-0.2-0.3-4.8-3.2-4.9-3.3-8.9 3.6-8.8 3.5-0.2 18.8 5.2 9.1 5.3 9.2 9.7 17.2 1.4 2.5 1.5 2.4zm-32.4 393h-4.2l-6.8-0.4-3.1-7.4-3.2-7.3 0.1-0.2 0.2-0.2 2.3-6.8 2.4-6.7 1.5-10.6 1.6-10.6 14.4-15 14.4-14.9h4.8l4.8-0.1-0.3 0.6-24.8 79.7zm406.8-105l-0.2 0.2-28.9-4.9-28.9-4.9v-0.5l3.7-3 3.7-3 0.7-0.5 0.8-0.4 7.2 2.7 7.2 2.7 6.5-1.4 6.6-1.5 10.5 5.2 10.6 5.2 0.4 1.9 0.4 2c0 0-0.3 0.2-0.3 0.2zm-63.6-18.1h-0.3l-25.9-35.3-25.9-35.3-0.9-1.2-0.9-1.2 0.4-0.4 7.8 3 7.9 3 46.5 48.1 0.2 12.3-4.3 3.5-4.3 3.6zm21.1-151.7l-0.3 0.1-1.8-2.1-1.8-2.1v-6.1l4.4-1 4.4-0.9h0.4 0.5v5.3l-2.8 3.4-2.7 3.3c0 0-0.3 0.1-0.3 0.1zm-441.8-105l-0.8-0.1-4.1-1.1-4-1.1 0.3-0.2 0.2-0.3 6.2-2.3 6.3-2.2 0.4 0.4-1.9 3.4-1.8 3.5zm-103-2.5l-0.8-0.1-2.3-0.6-2.4-0.7-1.5-0.4-1.5-0.4 0.1-2.9 0.1-3 0.9-0.1 0.9-0.2 7.3 0.5v7.9c0 0-0.8 0-0.8 0zm0.8-11.9l-0.9-0.1-3.6-0.6-3.7-0.5-2.7-1.8-2.7-1.8v-4.2l7.1 0.1 7.1 0.1 0.1 4.4 0.1 4.4c0 0-0.8 0-0.8 0zm-36.3-13.7v-14.7h0.2l3.1 0.8 3.1 0.9 0.4 0.2 0.4 0.3v12.5zm-33.9-0.3l0.1-0.3 0.1-0.3 3.9-3.3 3.8-3.3h0.4v7.2zm40.6-16.7l-3.3-1.2-0.1-3.1-0.1-3.1h5.5v0.2l-0.8 3.4-0.7 3.4zm-73-52.8h-0.3v-0.5l5.3-5.1 5.2-5-2.5-3.7-2.6-3.7v-0.3-0.3l5.9-3.2-0.1-4.1-0.1-4.2-0.1-0.1-0.1-0.1-3.9-0.4-3.9-0.5-0.2-14.9h8.8l0.5 0.3 0.4 0.3 5.8 13.3 5.8 13.3 0.1 0.1 0.2 0.1 9.2 2-0.1 1.8-0.1 1.7-0.2 1.5-0.2 1.6-1.5 0.1-1.5 0.1-0.4 2.2-0.4 2.3-0.3 0.3-0.4 0.3-5.2 0.8-5.2 0.8-8.8 1.6-8.8 1.6c0 0-0.3 0-0.3 0zm-21.9-6.9v-16l5.5-4 5.6-4 5.3 0.4 5.4 0.4v6.1l-4.3 1.7-0.1 0.1 0.9 11.2-0.3 0.3-0.2 0.2-5-0.7-5-0.7h-1.3v5zm101.6-22.6l-0.1-0.2-0.2-0.2 0.6-3 0.5-2.9 2.6-1.3 0.9-0.2 0.8-0.2 2.2 2.2 2.1 2.1-1.2 1.8-1.2 1.9zm-258.4-79.1v-1.6q-1.6 1.7-3.2 3.4zm135.2 31.5h-0.5l-25.9-3.8-0.5-0.2-0.4-0.3v-7.2h8.1l1.4-2 1.4-1.9 6.7 0.2 6.7 0.2 5.8-1.9 5.9-1.9 8.3 8.2-0.1 1.4-0.1 1.4-8.1 3.9-8.1 3.9zm239 859.7c-298.7 0-540-241.4-540-540 0-298.7 241.3-540 540-540 298.6 0 540 241.3 540 540 0 298.6-241.4 540-540 540z"/></svg>